<svg width="283" height="64" viewBox="0 0 283 64" fill="none" xmlns="http://www.w3.org/2000/svg">
<path d="M78.1917 21.9714C78.1917 19.8403 77.4654 18.7747 76.0128 18.7747C75.7112 18.7643 75.4096 18.7932 75.1154 18.8609C74.7355 18.9392 74.3494 18.9826 73.9617 18.9907C73.7853 18.9934 73.6102 18.9583 73.4482 18.8876C73.2861 18.8168 73.1408 18.7121 73.0217 18.5803C72.8948 18.445 72.7954 18.2857 72.7295 18.1115C72.6635 17.9373 72.6321 17.7517 72.6372 17.5652C72.6372 16.5571 73.2334 16.0531 74.4258 16.0531C74.4542 16.0531 74.6669 16.0674 75.0639 16.0962C79.3215 16.3841 81.3087 16.5281 81.0253 16.5281H81.4483L91.7097 16.2254C91.9086 16.2254 92.6467 16.1821 93.924 16.0956C94.3778 16.0669 94.7892 16.0525 95.1581 16.0525C96.6342 16.0525 97.3723 16.7149 97.3723 18.0397C97.3723 18.2702 97.3316 19.0045 97.2502 20.2428C97.1892 21.1643 97.1587 22.0139 97.1587 22.7916C97.1469 23.498 97.1706 24.2045 97.2299 24.9085C97.309 25.5247 97.3565 26.1446 97.3723 26.7658C97.3723 27.8601 96.8596 28.4072 95.8342 28.4072C94.8087 28.4072 94.296 27.6405 94.296 26.107V23.8503C94.296 21.42 93.7994 19.9878 92.8062 19.5534C92.0679 19.2354 90.166 19.0763 87.1005 19.0763C85.9066 19.0362 84.7115 19.0803 83.5238 19.2082C82.3029 19.5301 81.6925 20.4077 81.6925 21.8411V26.1611C81.6925 27.3131 81.9452 27.9755 82.4507 28.1482C82.7829 28.219 83.1226 28.248 83.4619 28.2344H85.1897C86.9596 28.2344 87.8446 27.6153 87.8446 26.377C87.8367 25.9288 87.801 25.4814 87.7376 25.0377C87.6704 24.5502 87.6347 24.0588 87.6305 23.5666C87.6305 22.4145 88.1361 21.8385 89.1474 21.8385C90.1586 21.8385 90.6642 22.4576 90.6642 23.6958C90.6642 23.9263 90.5721 24.8195 90.3878 26.3754C90.2409 27.5361 90.162 28.7046 90.1513 29.8747C90.1513 30.4506 90.2083 31.473 90.3223 32.9421C90.3507 33.1726 90.4219 33.6767 90.5359 34.4543C90.6107 34.955 90.6535 35.4601 90.6642 35.9664C90.6941 36.1777 90.6749 36.3931 90.6082 36.5956C90.5414 36.798 90.429 36.982 90.2797 37.1329C90.1305 37.2838 89.9485 37.3975 89.7483 37.465C89.548 37.5325 89.335 37.5519 89.126 37.5217C88.129 37.5217 87.6305 36.9169 87.6305 35.7074C87.6412 35.245 87.6769 34.7835 87.7376 34.325C87.7982 33.8665 87.8339 33.4051 87.8446 32.9426C87.8446 31.7044 87.0329 31.0853 85.4095 31.0853H83.4869C82.661 31.0853 82.1553 31.2293 81.97 31.5172C81.7308 32.1046 81.6356 32.7419 81.6925 33.3745V36.0542C81.6925 36.5148 81.7067 37.1339 81.7351 37.9115C81.7635 38.8618 81.7777 39.4955 81.7777 39.8125C81.8061 40.9646 82.0339 41.6846 82.4611 41.9725C82.7729 42.1742 83.5134 42.2751 84.6826 42.2751H90.4964C92.1769 42.2751 93.3305 42.0231 93.9572 41.519C94.5839 41.015 94.8972 40.0719 94.8972 38.6897C94.8972 38.2578 94.8759 37.6169 94.8333 36.7672C94.7907 35.9174 94.7692 35.2764 94.7689 34.8441C94.7689 33.5481 95.2747 32.9001 96.2863 32.9001C97.354 32.9001 97.8878 33.5625 97.8878 34.8872C97.8878 35.4056 97.8665 36.1976 97.8239 37.2632C97.7813 38.3287 97.76 39.1207 97.76 39.6391C97.76 40.0423 97.7813 40.6398 97.8239 41.4318C97.8665 42.2238 97.8878 42.8214 97.8878 43.2246C97.8878 44.578 97.2327 45.2548 95.9225 45.2548C95.6107 45.2548 95.1122 45.2218 94.427 45.156C94.085 45.1224 93.4583 45.1056 92.5469 45.1056C92.7464 45.1056 91.6356 45.0726 89.2144 45.0068C86.7932 44.9409 84.6997 44.9078 82.9339 44.9075C80.2564 44.9075 77.636 45.0083 75.0727 45.2101C74.9435 45.2117 74.8147 45.2262 74.6882 45.2532H74.4331C73.2368 45.2532 72.6387 44.7348 72.6387 43.698C72.6387 42.7764 73.0803 42.3156 73.9633 42.3156C74.1057 42.3156 74.4902 42.3443 75.1169 42.4017C75.409 42.4852 75.7108 42.5288 76.0143 42.5315C77.4669 42.5315 78.1932 41.4516 78.1932 39.2918L78.1917 21.9714ZM114.082 39.0758V36.3111C114.11 35.1303 114.623 34.5399 115.62 34.5399C116.617 34.5399 117.115 35.2018 117.114 36.5255C117.114 39.6647 116.718 41.8539 115.925 43.0932C114.851 44.7637 113.083 45.5989 110.621 45.5989C108.358 45.5989 106.746 44.8646 105.784 43.3958C105.077 42.3303 104.723 40.5158 104.723 37.9525V27.585C104.723 26.98 104.446 26.6776 103.892 26.6776H102.494C102.281 26.6844 102.068 26.6478 101.869 26.5699C101.671 26.492 101.489 26.3744 101.336 26.2241C101.188 26.0825 101.071 25.9113 100.992 25.7213C100.913 25.5313 100.874 25.3268 100.877 25.1207C100.878 24.9198 100.918 24.7209 100.995 24.5356C101.072 24.3503 101.184 24.1822 101.326 24.041C101.451 23.8954 101.605 23.7781 101.778 23.6966C101.951 23.6152 102.139 23.5714 102.33 23.5681H103.996C104.481 23.5681 104.724 23.2946 104.724 22.7474V18.2977C104.724 17.2034 105.279 16.6563 106.39 16.6563C107.416 16.6563 107.928 17.2034 107.928 18.2977V22.9213C107.928 23.3532 108.185 23.5692 108.697 23.5692H113.355C114.437 23.5692 114.978 24.0732 114.978 25.0813C114.978 26.1469 114.394 26.6797 113.226 26.6797H108.526C108.127 26.6797 107.928 26.9821 107.928 27.5871V38.2142C107.928 41.2381 108.924 42.7501 110.917 42.7501C112.939 42.7483 113.994 41.5236 114.082 39.0758ZM125.96 17.1806L125.787 25.5968C126.696 24.6686 127.754 23.902 128.915 23.3291C129.974 22.8889 131.112 22.6756 132.257 22.7028C134.713 22.7028 136.684 23.4084 138.17 24.8197C138.912 25.535 139.495 26.402 139.879 27.363C140.263 28.3239 140.44 29.3566 140.398 30.3923V37.6068C140.398 39.306 140.413 40.2419 140.441 40.4146C140.555 41.8546 140.925 42.5746 141.552 42.5746C141.891 42.5491 142.223 42.4674 142.535 42.3329C142.76 42.2872 142.989 42.2667 143.219 42.272C144.272 42.272 144.799 42.7624 144.799 43.7431C144.799 44.7239 144.116 45.2143 142.749 45.2143C142.206 45.2012 141.664 45.1579 141.125 45.0845C140.162 44.9571 139.192 44.885 138.22 44.8686C137.649 44.8591 137.078 44.8879 136.511 44.9548C135.315 45.1274 134.574 45.2138 134.29 45.2138C133.821 45.2298 133.364 45.0681 133.008 44.7603C132.843 44.6204 132.711 44.4449 132.623 44.2467C132.534 44.0486 132.49 43.8329 132.495 43.6155C132.494 43.4331 132.533 43.2528 132.611 43.0882C132.689 42.9236 132.802 42.7789 132.943 42.665C133.233 42.4094 133.605 42.2709 133.99 42.2762C134.369 42.2884 134.744 42.3613 135.101 42.4921C135.335 42.5747 135.58 42.6186 135.828 42.6219C136.683 42.6219 137.124 41.686 137.153 39.8141C137.153 39.4683 137.181 38.7916 137.238 37.7838V33.5936C137.238 30.6562 136.952 28.6834 136.38 27.6753C135.551 26.1779 134.093 25.4292 132.006 25.4292C129.747 25.4292 128.103 26.2068 127.074 27.762C126.359 28.8276 125.987 30.5411 125.959 32.9027V36.0132C125.937 36.307 125.879 36.5971 125.788 36.877V37.6977C125.788 39.3391 125.803 40.2894 125.832 40.5486C125.979 41.9599 126.403 42.6655 127.106 42.6655C127.442 42.6464 127.774 42.581 128.093 42.4711C128.398 42.3646 128.716 42.2992 129.038 42.2767C129.975 42.2767 130.444 42.7366 130.444 43.6564C130.444 44.695 129.813 45.2143 128.552 45.2143C128.15 45.2143 127.547 45.1711 126.744 45.0845C125.816 44.9789 124.882 44.9212 123.948 44.9117C123.461 44.9117 122.787 44.9549 121.927 45.0414C120.779 45.1567 120.048 45.2143 119.732 45.2143C118.556 45.2143 117.968 44.6801 117.968 43.6118C117.968 42.7217 118.52 42.2767 119.622 42.2767C119.903 42.261 120.184 42.3021 120.448 42.3975C120.789 42.4939 121.139 42.5549 121.492 42.5793C121.956 42.5793 122.268 42.1401 122.428 41.2616C122.642 39.476 122.736 37.6777 122.708 35.8792V28.1466C122.708 23.8266 122.623 21.098 122.452 19.9606C122.281 18.8233 121.883 18.2544 121.257 18.2541C120.954 18.2681 120.654 18.3116 120.359 18.3838C120.051 18.4585 119.736 18.5019 119.419 18.5136C118.449 18.5136 117.964 18.0528 117.964 17.1312C117.965 16.9302 118.012 16.7321 118.101 16.5523C118.19 16.3726 118.319 16.2159 118.477 16.0946C118.825 15.8043 119.265 15.6509 119.716 15.6627C119.858 15.6627 120.343 15.7059 121.171 15.7925C121.753 15.852 122.338 15.8808 122.923 15.8786C123.281 15.8688 123.638 15.8326 123.991 15.7704C124.315 15.7118 124.644 15.6756 124.973 15.6622C125.628 15.6622 125.956 16.1394 125.956 17.0939L125.96 17.1806ZM165.907 32.3022C165.964 32.977 165.891 33.6565 165.693 34.3035C165.55 34.5487 165.136 34.6713 164.45 34.6713H150.826C150.574 34.6425 150.319 34.6957 150.099 34.8231C150.036 34.889 149.989 34.9678 149.959 35.054C149.929 35.1403 149.919 35.2319 149.927 35.3228C149.863 37.3144 150.552 39.2558 151.855 40.7509C152.448 41.4471 153.185 42.0026 154.015 42.3779C154.844 42.7532 155.745 42.9392 156.654 42.9224C157.879 42.9311 159.079 42.5698 160.101 41.8847C161.073 41.2853 161.796 40.3487 162.136 39.2498L162.522 37.9972C162.594 37.6809 162.777 37.4017 163.037 37.2111C163.296 37.0206 163.616 36.9316 163.935 36.9605C164.992 36.9605 165.521 37.5077 165.521 38.6019C165.521 40.4738 164.581 42.1376 162.701 43.5934C160.869 45.0306 158.61 45.7988 156.292 45.7728C153.303 45.7728 150.925 44.757 149.158 42.7254C147.391 40.6938 146.508 37.9651 146.508 34.5394C146.508 31.0257 147.448 28.1746 149.328 25.9861C150.23 24.9166 151.36 24.0661 152.632 23.4978C153.904 22.9294 155.286 22.6577 156.676 22.7028C157.906 22.6638 159.13 22.8849 160.271 23.3519C161.411 23.8188 162.442 24.5213 163.299 25.4144C164.166 26.3281 164.844 27.4084 165.292 28.5914C165.74 29.7745 165.948 31.0362 165.905 32.3022H165.907ZM150.396 31.2135C150.396 31.6167 150.71 31.8182 151.339 31.8182H161.587C162.187 31.8182 162.487 31.6167 162.487 31.2135C162.491 30.4668 162.34 29.7276 162.045 29.0432C161.75 28.3588 161.316 27.7443 160.772 27.2392C160.246 26.6999 159.618 26.2728 158.926 25.9833C158.234 25.6939 157.491 25.548 156.742 25.5542C155.119 25.5628 153.558 26.1873 152.369 27.3039C151.053 28.4703 150.396 29.7735 150.396 31.2135ZM175.518 24.6694V25.8569C176.164 24.8668 177.047 24.0584 178.086 23.5071C179.124 22.9558 180.284 22.6796 181.457 22.7043C183.23 22.6249 184.965 23.2356 186.306 24.4109C186.913 24.9607 187.394 25.638 187.715 26.3953C188.036 27.1527 188.19 27.9719 188.165 28.7955C188.215 29.9041 187.882 30.9959 187.225 31.8844C186.934 32.2663 186.558 32.573 186.127 32.7795C185.696 32.986 185.223 33.0864 184.747 33.0724C184.136 33.0887 183.541 32.8729 183.08 32.4677C182.865 32.2897 182.692 32.0651 182.573 31.8105C182.455 31.5559 182.395 31.2778 182.397 30.9965C182.397 30.7672 182.443 30.5402 182.531 30.3289C182.619 30.1175 182.748 29.926 182.91 29.7654C183.06 29.5958 183.245 29.4601 183.451 29.3671C183.656 29.274 183.879 29.2257 184.105 29.2253C184.294 29.2479 184.48 29.2914 184.66 29.3551C184.817 29.0626 184.905 28.7372 184.917 28.4046C184.915 27.9893 184.815 27.5805 184.625 27.2122C184.435 26.844 184.161 26.527 183.825 26.2877C183.045 25.6941 182.088 25.3891 181.112 25.4239C178.891 25.4239 177.409 26.4318 176.669 28.4477C176.213 29.6859 175.985 31.5578 175.985 34.0634V36.9143C175.985 38.844 176 39.9239 176.029 40.154C176.172 41.7954 176.617 42.6161 177.365 42.6161C177.757 42.6138 178.148 42.5643 178.529 42.4685C178.797 42.4006 179.073 42.3634 179.35 42.3576C180.269 42.3576 180.729 42.8114 180.729 43.719C180.729 44.712 180.145 45.2085 178.978 45.2085H178.807C178.156 45.1922 177.508 45.1417 176.863 45.0572C176.218 44.9728 175.569 44.9223 174.919 44.9059C173.779 44.9059 172.882 44.9346 172.227 44.9921L169.836 45.208C168.669 45.208 168.085 44.704 168.085 43.6959C168.085 42.803 168.631 42.3566 169.723 42.3566C169.94 42.3512 170.156 42.3657 170.37 42.3996L171.017 42.5294C171.215 42.575 171.417 42.6038 171.62 42.6156C172.339 42.6156 172.727 41.9532 172.784 40.6285V38.4254L172.656 28.619C172.57 26.9198 172.143 26.0702 171.374 26.0702C171.058 26.0798 170.744 26.116 170.434 26.1784C170.124 26.2408 169.81 26.277 169.494 26.2866C168.554 26.2866 168.084 25.8329 168.084 24.9253C168.084 23.9322 168.696 23.4357 169.921 23.4357C170.35 23.4472 170.778 23.4834 171.203 23.544C171.628 23.6046 172.056 23.6407 172.485 23.6522C172.857 23.639 173.228 23.6028 173.596 23.544C173.86 23.4669 174.133 23.4304 174.408 23.4357C175.148 23.4371 175.518 23.8484 175.518 24.6694ZM199.033 22.7033C200.747 22.6424 202.429 23.176 203.802 24.2154V24.0426C203.802 22.977 204.258 22.4443 205.169 22.4443C206.109 22.4443 206.579 22.9051 206.579 23.8266C206.579 23.9993 206.555 24.4314 206.508 25.1228C206.413 25.6939 206.366 26.2719 206.365 26.8509C206.365 27.1967 206.401 27.7007 206.473 28.3631C206.544 29.0255 206.58 29.5295 206.58 29.8752C206.58 30.9695 206.117 31.5167 205.191 31.5167C205.005 31.5404 204.816 31.5211 204.638 31.4603C204.461 31.3996 204.299 31.2989 204.165 31.1658C204.032 31.0328 203.93 30.8708 203.867 30.6922C203.804 30.5135 203.782 30.3228 203.803 30.1343V28.7088C203.774 27.8447 203.281 27.1031 202.322 26.4842C201.312 25.8504 200.141 25.5276 198.953 25.5553C197.77 25.5134 196.608 25.8705 195.648 26.5704C195.24 26.85 194.905 27.2264 194.673 27.6669C194.441 28.1074 194.319 28.5986 194.318 29.0976C194.318 30.9408 195.575 32.0352 198.09 32.381L200.576 32.7267C205.433 33.3891 207.862 35.4195 207.862 38.8179C207.888 39.7836 207.69 40.7421 207.283 41.6162C206.876 42.4903 206.271 43.2555 205.518 43.8503C203.956 45.132 201.911 45.7728 199.383 45.7728C197.17 45.8201 195.008 45.104 193.251 43.7426V44.5644C193.251 45.6012 192.766 46.1196 191.796 46.1196C190.742 46.1196 190.215 45.5292 190.215 44.3484C190.339 43.6046 190.424 42.8549 190.472 42.1023C190.528 41.702 190.557 41.2981 190.557 40.8938C190.56 40.2418 190.503 39.5909 190.386 38.9497C190.287 38.4806 190.23 38.0036 190.215 37.5243C190.215 36.5162 190.671 36.0121 191.582 36.0121C192.18 36.0121 192.558 36.1561 192.714 36.444C192.938 37.1846 193.032 37.9589 192.992 38.7322C193.021 39.9705 193.662 40.9784 194.915 41.756C196.372 42.5858 198.029 42.9897 199.7 42.9224C200.942 42.9718 202.163 42.5908 203.161 41.8427C203.588 41.5328 203.934 41.1239 204.172 40.6503C204.41 40.1767 204.532 39.6522 204.528 39.121C204.528 37.1626 202.99 36.0242 199.914 35.7058C196.98 35.3906 194.744 34.8074 193.206 33.9562C191.668 33.105 190.899 31.6146 190.899 29.4849C190.873 28.5466 191.063 27.6151 191.455 26.7641C191.847 25.913 192.429 25.1659 193.156 24.5817C194.66 23.3294 196.62 22.7033 199.033 22.7033ZM223.498 30.7816C223.498 29.6295 224.21 28.9672 225.634 28.7945C225.576 28.3176 225.418 27.8589 225.17 27.449C224.922 27.0392 224.591 26.6878 224.197 26.4185C223.26 25.8075 222.159 25.5056 221.045 25.5547C220.12 25.5311 219.204 25.735 218.375 26.1489C217.545 26.5627 216.828 27.1742 216.284 27.9307C215.083 29.5146 214.482 31.6163 214.482 34.2357C214.482 36.943 215.046 39.0669 216.175 40.6074C216.707 41.355 217.414 41.9575 218.233 42.3609C219.052 42.7644 219.957 42.9562 220.867 42.9193C222.048 42.9442 223.203 42.564 224.143 41.8406C225.091 41.0909 225.762 40.0413 226.05 38.8599C226.335 37.8518 226.507 37.2758 226.564 37.1318C226.686 36.8694 226.88 36.6483 227.124 36.4951C227.368 36.3419 227.65 36.263 227.936 36.268C228.158 36.2602 228.378 36.298 228.585 36.3794C228.791 36.4607 228.979 36.5837 229.136 36.7409C229.292 36.8991 229.415 37.088 229.496 37.2958C229.577 37.5036 229.615 37.7261 229.608 37.9494C229.562 38.8533 229.329 39.7374 228.924 40.5444C228.525 41.4655 227.976 42.3125 227.3 43.0501C226.466 43.9489 225.451 44.6568 224.324 45.1264C223.197 45.596 221.984 45.8164 220.765 45.7728C219.438 45.8204 218.117 45.5656 216.901 45.0272C215.684 44.4888 214.603 43.6805 213.737 42.6624C211.957 40.5887 211.067 37.8672 211.067 34.4979C211.067 30.925 211.985 28.0668 213.821 25.9231C215.657 23.7793 218.099 22.7066 221.148 22.7049C223.203 22.6295 225.217 23.2957 226.83 24.5843C227.549 25.1472 228.127 25.8717 228.521 26.7003C228.914 27.5289 229.11 28.4388 229.095 29.3577C229.132 30.3148 228.82 31.2523 228.219 31.9927C227.948 32.3261 227.604 32.5927 227.216 32.7723C226.827 32.9519 226.404 33.0398 225.976 33.0293C225.325 33.0518 224.69 32.8198 224.203 32.3815C223.977 32.183 223.797 31.9369 223.675 31.6605C223.553 31.3842 223.493 31.0842 223.498 30.7816ZM251.226 45.5984C248.89 45.5984 247.453 44.5759 246.913 42.531C245.459 44.6922 243.18 45.7728 240.075 45.7728C237.768 45.7728 235.923 45.1968 234.542 44.0447C233.866 43.4891 233.327 42.7821 232.967 41.9797C232.608 41.1773 232.437 40.3014 232.47 39.421C232.418 38.3402 232.678 37.2674 233.216 36.3322C233.754 35.3969 234.549 34.6393 235.504 34.1506C236.125 33.7806 236.793 33.4977 237.49 33.3099C238.044 33.1803 239.162 33.0146 240.844 32.8129C243.236 32.5537 244.795 32.1937 245.521 31.7331C246.246 31.2725 246.61 30.4229 246.612 29.1843C246.636 28.6566 246.538 28.1304 246.327 27.6472C246.116 27.164 245.797 26.7369 245.395 26.3996C244.415 25.6693 243.213 25.31 241.998 25.3845C240.723 25.3824 239.476 25.7577 238.409 26.4642C237.982 26.7522 237.769 27.0546 237.769 27.3716C237.769 27.4869 237.897 27.6308 238.153 27.8035C238.365 27.9798 238.531 28.2064 238.635 28.4631C238.74 28.7198 238.78 28.9986 238.751 29.2747C238.758 29.5437 238.706 29.8109 238.599 30.0573C238.492 30.3037 238.332 30.5232 238.132 30.7002C237.702 31.081 237.144 31.2818 236.573 31.2618C236.227 31.2702 235.882 31.2054 235.562 31.0715C235.242 30.9376 234.953 30.7376 234.714 30.4842C234.47 30.2341 234.278 29.937 234.15 29.6104C234.021 29.2839 233.959 28.9346 233.966 28.5832C233.966 26.972 234.757 25.5896 236.338 24.4361C238.02 23.2524 240.035 22.6466 242.084 22.708C247.268 22.708 249.86 25.2225 249.86 30.2514V38.9592C249.834 39.7792 249.862 40.6 249.945 41.4161C250.116 42.4217 250.601 42.9245 251.4 42.9245C252.397 42.9245 252.896 42.0093 252.896 40.1787V38.077C252.896 37.1618 253.33 36.7041 254.199 36.7041C255.125 36.7041 255.587 37.3952 255.587 38.7774V41.457C255.528 44.2183 254.074 45.5984 251.226 45.5984ZM246.441 37.002V33.9352C245.874 34.476 245.2 34.8881 244.462 35.1436C243.243 35.4647 241.996 35.6672 240.739 35.7484C237.505 36.0636 235.888 37.2731 235.888 39.3769C235.867 39.872 235.963 40.365 236.167 40.8154C236.372 41.2659 236.678 41.6611 237.063 41.9688C237.984 42.6461 239.108 42.9818 240.245 42.9193C242.154 42.9193 243.656 42.3939 244.753 41.343C245.315 40.776 245.755 40.0977 246.045 39.3507C246.336 38.6037 246.47 37.8041 246.441 37.002ZM263.488 24.7561V25.9866C264.287 24.9287 265.324 24.0789 266.513 23.5078C267.702 22.9367 269.008 22.6609 270.324 22.7033C271.855 22.7014 273.359 23.1114 274.682 23.8913C275.911 24.5334 276.889 25.576 277.459 26.8504C277.899 28.0815 278.102 29.3865 278.057 30.6949V38.903C278.057 40.1412 278.071 40.8756 278.099 41.1061C278.242 42.0868 278.626 42.5772 279.253 42.5772C279.59 42.5689 279.926 42.5327 280.257 42.469C280.546 42.4112 280.839 42.3751 281.133 42.3608C281.31 42.3585 281.487 42.3916 281.652 42.4584C281.817 42.5251 281.967 42.624 282.094 42.7496C282.224 42.8699 282.328 43.0169 282.398 43.1808C282.468 43.3446 282.503 43.5216 282.5 43.7001C282.502 43.9078 282.457 44.1133 282.368 44.3006C282.279 44.4879 282.149 44.6519 281.987 44.7798C281.639 45.0701 281.199 45.2234 280.748 45.2117C280.091 45.1898 279.435 45.1315 278.783 45.0372C277.933 44.9261 277.077 44.8684 276.22 44.8644C275.606 44.858 274.993 44.8867 274.383 44.9506C272.959 45.1232 272.204 45.2096 272.118 45.2096C270.979 45.2096 270.409 44.7055 270.409 43.6974C270.409 42.8046 270.903 42.3581 271.891 42.3581C272.154 42.3614 272.417 42.3903 272.674 42.4443C273.017 42.5284 273.366 42.5872 273.717 42.6203C274.414 42.6203 274.792 41.8283 274.85 40.2444V32.1209C274.887 31.0654 274.816 30.0089 274.637 28.9684C274.423 27.937 273.83 27.0262 272.977 26.4196C272.043 25.7578 270.926 25.4102 269.786 25.426C267.516 25.426 265.884 26.2467 264.891 27.8881C264.21 29.0115 263.87 30.9266 263.87 33.6336V39.379C263.824 40.2511 263.91 41.1252 264.126 41.9709C264.183 42.176 264.307 42.3555 264.477 42.4808C264.648 42.6061 264.855 42.6699 265.066 42.6618C265.384 42.6481 265.699 42.5973 266.006 42.5105C266.326 42.4212 266.656 42.3704 266.988 42.3592C267.871 42.3592 268.313 42.8415 268.313 43.8062C268.313 44.7421 267.743 45.2101 266.604 45.2101C266.376 45.2101 265.635 45.1238 264.382 44.9511C263.688 44.8603 262.989 44.817 262.289 44.8213C261.489 44.8353 260.691 44.893 259.898 44.9942C258.645 45.1381 257.933 45.2101 257.762 45.2101C256.566 45.2101 255.968 44.7197 255.968 43.7389C255.943 43.5491 255.962 43.3561 256.023 43.175C256.085 42.9939 256.187 42.8298 256.322 42.6957C256.457 42.5615 256.622 42.461 256.802 42.4022C256.982 42.3433 257.173 42.3277 257.36 42.3566C257.632 42.3756 257.901 42.4191 258.165 42.4863C258.544 42.5714 258.931 42.6149 259.318 42.6161C260.189 42.6161 260.639 41.7809 260.67 40.1104V28.5785C260.671 27.8915 260.546 27.2102 260.3 26.5698C260.206 26.3929 260.064 26.2475 259.89 26.1515C259.716 26.0555 259.518 26.0131 259.32 26.0297C259.019 26.0432 258.721 26.0867 258.428 26.1595C258.136 26.2323 257.837 26.2758 257.537 26.2893C256.492 26.2893 255.97 25.8213 255.97 24.8854C255.97 23.9207 256.611 23.4384 257.893 23.4384C258.036 23.4354 258.18 23.4499 258.32 23.4814L259.9 23.6543C260.301 23.6592 260.702 23.623 261.096 23.5461C261.836 23.4739 262.221 23.4378 262.249 23.4378C263.075 23.4378 263.488 23.8773 263.488 24.7561Z" fill="white"/>
<path d="M13.8294 30.3733C13.8294 30.0174 13.899 29.665 14.0342 29.3363C14.1693 29.0076 14.3673 28.7092 14.6169 28.4581C14.8664 28.207 15.1625 28.0082 15.4882 27.8732C15.814 27.7381 16.1629 27.6695 16.5149 27.6711L20.9672 27.6858C21.6771 27.6858 22.3579 27.971 22.8599 28.4785C23.3619 28.9861 23.6439 29.6745 23.6439 30.3923V47.4158C24.1454 47.2655 24.7871 47.1053 25.4933 46.9372C25.9826 46.8208 26.4186 46.5407 26.7307 46.1423C27.0428 45.744 27.2127 45.2507 27.2128 44.7425V23.6275C27.2128 22.9097 27.4948 22.2212 27.9968 21.7136C28.4988 21.2059 29.1796 20.9207 29.8895 20.9205H34.3554C35.0653 20.9207 35.7461 21.2059 36.2481 21.7136C36.7501 22.2212 37.0321 22.9097 37.0321 23.6275V43.2256C37.0321 43.2256 38.1493 42.7685 39.2369 42.304C39.6411 42.1312 39.986 41.8418 40.2285 41.4721C40.4711 41.1024 40.6006 40.6686 40.601 40.2249V16.8612C40.601 16.1435 40.8829 15.4552 41.3848 14.9476C41.8867 14.4401 42.5674 14.1549 43.2772 14.1547H47.7383C48.4478 14.1554 49.1279 14.4409 49.6294 14.9484C50.1308 15.4558 50.4124 16.1438 50.4124 16.8612V36.1004C54.2802 33.2663 58.1998 29.8574 61.3104 25.7586C61.7617 25.1636 62.0604 24.465 62.1797 23.7249C62.299 22.9849 62.2353 22.2265 61.9943 21.5174C60.5544 17.3288 58.2656 13.4903 55.2743 10.2475C52.283 7.00464 48.6551 4.42889 44.6228 2.68506C40.5905 0.941226 36.2425 0.0677096 31.8572 0.120415C27.4718 0.17312 23.1457 1.15088 19.1555 2.99113C15.1653 4.83139 11.599 7.4936 8.68479 10.8074C5.77058 14.1212 3.57264 18.0137 2.23161 22.2357C0.890589 26.4577 0.436014 30.9162 0.896976 35.326C1.35794 39.7359 2.72429 43.9998 4.90859 47.8451C5.28914 48.5084 5.84903 49.0482 6.52246 49.4009C7.19589 49.7536 7.9549 49.9047 8.71032 49.8364C9.55422 49.7613 10.6049 49.6551 11.8542 49.507C12.3979 49.4444 12.8998 49.1819 13.2644 48.7693C13.629 48.3568 13.8309 47.823 13.8314 47.2697V30.3733" fill="white"/>
<path d="M13.7343 57.6746C18.4367 61.1335 23.9937 63.2097 29.7907 63.6735C35.5877 64.1372 41.3985 62.9705 46.5803 60.3023C51.7622 57.6341 56.113 53.5685 59.1515 48.5553C62.1899 43.5421 63.7975 37.7767 63.7964 31.8971C63.7964 31.1615 63.7627 30.4374 63.7143 29.7155C52.1974 47.0832 30.9325 55.2025 13.7343 57.6746Z" fill="#BFCFDA"/>
</svg>
