<svg width="215" height="56" viewBox="0 0 215 56" fill="none" xmlns="http://www.w3.org/2000/svg">
<path d="M56.3844 28.3168C56.3844 12.9418 44.0586 0.566818 28.8593 0.341818C12.9795 0.116818 0.199984 12.7918 0.124365 27.7918C0.048747 43.3918 12.5258 55.8418 28.1032 55.9918C43.5293 56.1418 56.3844 43.5418 56.3844 28.3168Z" fill="white"/>
<path d="M56.3844 28.3168C56.3844 43.5418 43.5293 56.0668 28.1788 55.9918C12.5258 55.8418 0.048747 43.3918 0.124365 27.7918C0.199984 12.7918 12.9795 0.116818 28.8593 0.341818C43.983 0.566818 56.3844 12.9418 56.3844 28.3168ZM6.8544 42.6418C7.45935 41.0668 8.06429 39.8668 8.29115 38.5168C8.97171 34.2418 9.57666 29.8918 10.106 25.6168C10.5597 21.3418 12.677 18.3418 16.3823 16.0918C21.2975 13.0918 26.742 14.2918 31.9597 13.9168C33.0184 13.8418 34.1526 14.9668 35.2113 15.6418C36.1943 16.3168 37.1017 17.2918 38.1604 17.7418C40.7314 18.8668 43.5293 19.4668 46.0247 20.7418C49.6544 22.6168 50.335 25.2418 48.0664 28.6918C46.9321 30.3418 45.3442 31.6918 44.0586 33.2668C40.8071 37.2418 37.4042 41.0668 34.6063 45.3418C33.2452 47.5168 33.1696 50.4418 32.489 53.3668C43.0756 52.2418 52.6035 42.8668 54.1915 32.7418C56.082 20.5918 49.9569 9.34182 38.9166 4.46682C27.9519 -0.258182 15.248 2.81682 7.6862 12.1918C0.729312 20.7418 0.199983 33.7168 6.8544 42.6418ZM29.6155 21.7918C29.6155 18.8668 27.347 16.5418 24.4735 16.5418C21.8268 16.5418 19.3314 19.0918 19.3314 21.7918C19.4071 24.6418 21.7512 26.8918 24.6247 26.8168C27.347 26.8168 29.6155 24.4918 29.6155 21.7918Z" fill="black"/>
<path d="M142.816 25.0167C145.765 25.0167 148.412 25.0167 151.21 25.0167C151.21 28.6167 151.21 31.9917 151.21 36.2667C149.849 35.3667 148.941 34.8417 147.883 34.1667C144.858 36.7917 139.262 36.5667 136.086 33.7167C132.532 30.4917 131.7 24.6417 134.196 20.1417C136.313 16.2417 140.775 14.4417 145.236 15.6417C148.639 16.5417 150.605 18.9417 150.605 22.1667C148.866 22.6167 147.731 22.5417 146.673 20.5917C145.085 17.5917 140.321 17.5917 138.204 20.3667C136.162 22.9917 135.784 28.7667 138.204 30.9417C139.565 32.2167 142.06 32.8917 143.951 32.7417C146.37 32.5917 147.656 30.5667 147.807 27.8667C146.143 27.8667 144.555 27.8667 142.741 27.8667C142.816 26.8167 142.816 25.9917 142.816 25.0167Z" fill="#FFFDFD"/>
<path d="M88.4466 27.9419C89.7321 27.9419 90.8664 27.9419 92.0007 27.9419C91.0176 34.0169 88.0685 36.2669 81.9434 35.8169C77.6332 35.5169 74.1548 31.3919 74.0791 26.5919C74.0035 20.8169 76.1208 17.1419 80.5067 15.8669C86.0268 14.2919 91.7738 16.7669 91.9251 22.1669C90.0346 22.5419 88.6735 22.6919 87.4636 20.4419C85.7244 17.2919 81.036 17.6669 78.9187 20.8169C77.2551 23.3669 76.9526 28.1669 79.0699 30.3419C80.2798 31.6169 82.4728 32.6669 84.212 32.7419C87.0099 32.8919 87.9929 30.4169 88.4466 27.9419Z" fill="#FFFDFD"/>
<path d="M197.564 21.4918C197.337 21.8668 197.261 22.0918 197.035 22.3168C192.876 26.7418 192.951 26.7418 196.354 31.9168C197.11 33.0418 197.715 34.1668 198.547 35.5168C196.278 35.8918 194.539 36.0418 193.405 33.7918C192.573 32.1418 191.514 30.7168 190.531 29.1418C187.204 30.4168 189.019 33.2668 188.187 35.4418C186.146 36.0418 184.86 35.9668 184.936 33.1168C185.087 27.4918 185.011 21.8668 185.011 15.9418C186.07 15.8668 187.053 15.7918 188.414 15.7168C188.414 19.3918 188.414 22.8418 188.414 26.4418C191.741 24.7918 192.8 20.1418 197.564 21.4918Z" fill="#FFFDFD"/>
<path d="M167.619 29.3668C165.804 29.3668 164.141 29.3668 162.477 29.3668C160.813 29.3668 159.15 29.3668 156.579 29.3668C157.713 30.8668 158.318 32.4418 159.15 32.6668C160.511 32.9668 162.099 32.4418 163.46 31.9918C164.594 31.6168 165.653 30.8668 167.317 30.0418C166.182 34.8418 163.233 36.5668 158.923 35.8168C155.369 35.2168 153.252 31.4668 153.857 26.6668C154.235 23.2918 157.562 20.5918 160.965 20.7418C165.124 20.9668 167.695 24.1918 167.619 29.3668ZM163.914 26.9668C163.838 24.6418 162.628 23.4418 160.435 23.5918C158.545 23.7418 157.259 24.7168 157.411 27.1168C159.15 27.1168 160.813 27.1168 162.401 27.1168C162.931 27.1168 163.384 27.0418 163.914 26.9668Z" fill="#FFFDFD"/>
<path d="M206.487 35.8168C202.252 35.8168 199.001 32.5168 199.076 28.2418C199.152 23.8918 202.328 20.6668 206.563 20.7418C210.948 20.7418 214.276 24.1168 214.049 28.5418C213.822 33.1918 210.495 36.4168 206.487 35.8168ZM210.495 28.2418C210.495 25.3168 208.982 23.5168 206.563 23.5918C204.294 23.6668 202.555 25.7668 202.555 28.3918C202.555 31.0918 204.37 33.0418 206.638 33.0418C209.058 33.0418 210.495 31.1668 210.495 28.2418Z" fill="#FFFDFD"/>
<path d="M101.075 35.8167C96.3109 35.8167 93.9668 33.2667 93.9668 28.2417C93.9668 23.4417 96.689 20.6667 101.226 20.7417C105.461 20.8167 108.637 24.0417 108.561 28.4667C108.561 32.9667 105.612 35.8167 101.075 35.8167ZM97.3696 28.4667C97.3696 31.5417 98.7307 33.1167 101.302 33.0417C103.646 32.9667 105.234 31.0167 105.158 28.2417C105.083 25.5417 103.343 23.5167 101.075 23.5917C98.5795 23.6667 97.3696 25.3167 97.3696 28.4667Z" fill="#FFFDFD"/>
<path d="M130.339 35.6668C129.054 35.6668 128.222 35.6668 126.861 35.6668C126.861 32.7418 126.861 29.8918 126.861 27.0418C126.861 25.2418 126.558 23.6668 124.29 23.6668C122.097 23.5918 121.114 25.0168 120.963 26.9668C120.811 29.7418 120.887 32.5918 120.887 35.5918C119.677 35.5918 118.694 35.5918 117.56 35.5918C117.56 30.9418 117.56 26.2918 117.56 21.4168C120.055 21.7168 122.399 21.5668 124.895 20.9668C127.693 20.2918 130.112 22.3168 130.188 25.0168C130.415 28.3918 130.339 31.8418 130.339 35.6668Z" fill="#FFFDFD"/>
<path d="M181.835 29.5168C182.365 34.3918 179.113 36.2668 174.803 35.8168C171.022 35.4418 168.753 32.0668 169.131 27.1918C169.434 23.2918 172.534 20.5918 176.618 20.7418C180.247 20.8918 182.44 22.9168 182.365 26.9668C180.928 26.0668 179.945 25.3168 178.811 24.7918C177.828 24.2668 176.769 23.6668 175.71 23.6668C173.366 23.7418 172.232 25.8418 172.534 29.2168C172.761 31.4668 173.593 33.1918 176.24 32.9668C177.071 32.8918 177.903 32.2168 178.735 31.7668C179.869 31.0918 180.852 30.2668 181.835 29.5168Z" fill="#FFFDFD"/>
<path d="M111.208 21.3418C112.266 21.3418 113.174 21.3418 114.232 21.3418C114.232 25.9918 114.232 30.6418 114.232 35.5168C113.325 35.5918 112.418 35.6668 111.208 35.7418C111.208 30.9418 111.208 26.2918 111.208 21.3418Z" fill="#FFFDFD"/>
<path d="M110.981 15.7917C112.266 15.7917 113.174 15.7917 114.308 15.7917C114.308 16.8417 114.308 17.7417 114.308 18.7917C113.325 18.8667 112.418 18.8667 111.208 18.9417C111.132 17.9667 111.057 17.0667 110.981 15.7917Z" fill="#FFFDFD"/>
<path d="M6.8544 42.6417C0.199984 33.7167 0.729313 20.7417 7.6862 12.1917C15.248 2.81671 27.9519 -0.333295 38.841 4.46671C49.8813 9.34171 56.0063 20.5917 54.1159 32.7417C52.5279 42.8667 43.0756 52.2417 32.4134 53.3667C33.094 50.4417 33.1696 47.4417 34.5307 45.3417C37.253 41.0667 40.7314 37.1667 43.983 33.1917C45.2685 31.6167 46.9321 30.3417 47.9908 28.6167C50.2593 25.2417 49.5788 22.6167 45.9491 20.6667C43.4537 19.3917 40.6558 18.7917 38.0848 17.6667C37.0261 17.2167 36.1187 16.2417 35.1357 15.5667C34.077 14.8917 32.9427 13.7667 31.8841 13.8417C26.6664 14.2167 21.2219 13.0917 16.3067 16.0167C12.6014 18.2667 10.4841 21.2667 10.0304 25.5417C9.57666 29.8917 8.97171 34.1667 8.21553 38.4417C8.06429 39.7917 7.38373 41.0667 6.8544 42.6417Z" fill="white"/>
<path d="M29.6155 21.7917C29.6155 24.4917 27.347 26.8167 24.7003 26.8917C21.8268 26.9667 19.407 24.7167 19.407 21.8667C19.3314 19.1667 21.8268 16.6167 24.5491 16.6167C27.347 16.5417 29.6155 18.9417 29.6155 21.7917ZM24.7003 18.3417C22.4318 18.2667 21.2975 19.5417 20.995 21.5667C20.7682 23.4417 22.583 25.3917 24.4735 25.3167C26.742 25.2417 28.1788 23.9667 28.1032 21.7917C28.1032 19.8417 26.9689 18.4167 24.7003 18.3417Z" fill="white"/>
<path d="M24.7003 18.3418C26.9689 18.4168 28.1032 19.8418 28.1788 21.7918C28.1788 23.9668 26.8177 25.2418 24.5491 25.3168C22.6586 25.3918 20.8438 23.4418 21.0707 21.5668C21.2975 19.5418 22.4318 18.3418 24.7003 18.3418Z" fill="black"/>
</svg>
