<svg width="277" height="62" viewBox="0 0 277 62" fill="none" xmlns="http://www.w3.org/2000/svg">
<path fill-rule="evenodd" clip-rule="evenodd" d="M1.13191 1.46659C8.04388 9.91844 15.633 20.5365 16.8605 22.2539C16.926 22.3455 16.9734 22.4118 17.0016 22.4511C17.6559 23.3623 18.1961 24.0396 18.6063 24.554C19.517 25.6959 19.7873 26.0348 19.2439 26.346C18.8056 26.597 18.3534 26.6798 17.9022 26.6798C17.3919 26.6798 16.8169 26.4322 16.3983 26.0321C16.1024 25.7494 14.0776 22.7867 11.3205 18.4767C9.21088 15.1787 7.4454 12.443 7.39723 12.3972C7.28589 12.2912 7.28779 12.2948 11.1054 19.1765C13.5025 23.4978 15.1422 26.6911 15.1422 26.8954C15.1422 27.311 15.0296 27.5294 14.5208 28.1012C13.6726 29.0548 13.2934 30.126 13.0196 32.3429C12.7128 34.828 11.8499 36.5838 9.45859 39.5882C8.05881 41.3471 7.82977 41.6694 7.47656 42.3784C7.03169 43.2711 6.90933 43.771 6.85975 44.8983C6.80735 46.0903 6.90941 46.8602 7.27084 47.9996C7.58727 48.9972 7.91754 49.6561 8.76188 50.9738C9.49056 52.1105 9.91012 52.9555 9.91012 53.2861C9.91012 53.5492 9.95996 53.5495 11.0891 53.2927C13.7912 52.6778 15.9854 51.5968 17.2194 50.2717C17.9831 49.4514 18.1624 48.9986 18.1682 47.8748C18.172 47.1397 18.1464 46.9858 17.9491 46.5629C17.6281 45.8744 17.0436 45.3022 15.7553 44.415C14.0674 43.2524 13.3464 42.3166 13.1473 41.0294C12.9839 39.9734 13.1734 39.2282 14.1072 37.2566C15.0737 35.2156 15.3133 34.3459 15.4753 32.2886C15.5799 30.9594 15.7248 30.4353 16.1039 30.0147C16.4992 29.576 16.8551 29.4274 17.8334 29.2925C19.4283 29.0732 20.4439 28.6574 21.2787 27.8824C22.0029 27.2101 22.3059 26.5622 22.3524 25.587L22.3877 24.8478L21.9831 24.3724C20.5175 22.6509 0.150441 0.113281 0.0602502 0.113281C0.0409829 0.113281 0.52325 0.722313 1.13191 1.46659ZM10.7328 46.247C11.0642 45.6556 10.8881 44.8957 10.3338 44.5243C9.81013 44.1735 8.9966 44.3388 8.9966 44.796C8.9966 44.9354 9.07316 45.0369 9.24576 45.1266C9.53633 45.2772 9.55743 45.4466 9.3288 45.7927C9.09725 46.1435 9.11593 46.4517 9.38152 46.661C9.80956 46.9988 10.4155 46.8131 10.7328 46.247ZM20.7064 14.0066C20.0526 13.9044 20.025 13.8924 20.3327 13.8448C20.9224 13.7534 22.3147 13.8779 23.2741 14.1078C25.514 14.6442 27.5522 16.0183 29.7278 18.4588L30.3057 19.1071L31.1327 18.9732C34.6161 18.4092 38.1597 18.8574 41.1237 20.2369C41.9391 20.6164 43.2247 21.3718 43.3852 21.566C43.4363 21.6278 43.5305 22.0261 43.5939 22.4511C43.8141 23.9213 43.704 25.0483 43.2576 25.89C43.0149 26.348 43.0013 26.4932 43.1644 26.8852C43.2947 27.198 43.6582 27.4295 44.0182 27.429C44.7547 27.428 45.5473 26.2284 45.9148 24.5593L46.0607 23.8963L46.3498 24.2262C47.9351 26.036 49.1806 28.5041 49.3945 30.2608L49.4501 30.7188L49.1838 30.3025C48.7249 29.5861 48.2643 29.0982 47.674 28.7048C46.6104 27.9956 45.4854 27.7543 42.5067 27.5962C39.8162 27.4533 38.2937 27.2218 36.7839 26.7258C34.2148 25.882 32.9201 24.7582 29.8684 20.7247C28.5132 18.9332 27.6755 17.942 26.8421 17.1437C24.9486 15.33 23.0881 14.3788 20.7064 14.0066ZM43.992 18.0066C44.0597 16.8061 44.2214 16.0143 44.5463 15.2912C44.6748 15.0049 44.7953 14.7707 44.8138 14.7707C44.8325 14.7707 44.7766 14.9819 44.6895 15.2401C44.4535 15.9419 44.4146 16.9018 44.5774 18.0186C44.7838 19.4356 44.9014 19.6401 46.3879 21.1708C47.0851 21.8888 47.8962 22.7943 48.1902 23.183L48.7249 23.8899L48.1902 23.3847C47.5365 22.767 46.033 21.5621 45.701 21.3899C45.4782 21.2744 45.445 21.2764 45.3078 21.4141C45.1813 21.5411 45.1545 21.7318 45.1369 22.6334C45.1095 24.0386 44.9196 24.9405 44.4607 25.8423C44.2125 26.3301 44.1733 26.226 44.3978 25.6755C44.5656 25.2644 44.5826 25.0837 44.5814 23.7234C44.5788 20.9902 44.2566 20.3331 42.3677 19.2074C41.8896 18.9223 41.1009 18.5111 40.6158 18.2935C40.131 18.076 39.7456 17.8865 39.7595 17.8724C39.8131 17.8187 41.6552 18.3604 42.3966 18.6477C43.4994 19.0751 43.6813 19.1305 43.8153 19.0789C43.9049 19.0444 43.9485 18.781 43.992 18.0066ZM20.0057 15.9083C19.8279 18.0185 20.6491 20.8413 21.9765 22.6823C23.0055 24.1095 24.6005 25.2186 25.778 25.3257C26.5491 25.3958 26.7808 25.1526 26.4319 24.6394C25.9477 23.9269 25.3521 22.8297 25.1944 22.36C25.0966 22.0682 24.8838 21.2063 24.7216 20.4446C24.1679 17.8442 23.6237 16.8315 22.3666 16.0623C21.9085 15.7819 20.9302 15.4151 20.3628 15.3108L20.0607 15.2553L20.0057 15.9083ZM42.3822 36.3846C36.1789 33.8684 33.994 31.6842 33.994 27.999C33.994 27.4567 34.0128 27.0129 34.0353 27.0129C34.058 27.0129 34.2979 27.1919 34.5685 27.4107C35.8264 28.4271 37.235 28.8613 41.1347 29.4343C43.4291 29.7718 44.7204 30.044 45.9117 30.4422C49.6977 31.7072 52.0403 34.2743 52.5989 37.7712C52.7612 38.7872 52.666 40.6925 52.4029 41.6967C52.1951 42.4899 51.5609 43.9194 51.3929 43.9743C51.3462 43.9895 51.3004 43.8095 51.2885 43.5646C51.2248 42.2516 50.5662 40.9734 49.4602 40.0157C48.2026 38.9269 46.513 38.0604 42.3822 36.3846ZM37.7276 36.1077C37.8147 36.369 37.9496 36.9639 38.0271 37.4299C38.524 40.409 36.9719 42.8159 33.9525 43.7486C33.6329 43.8472 32.3738 44.0956 31.1546 44.3C28.6865 44.714 27.5849 45.0073 26.4783 45.5443C25.6935 45.9253 24.7433 46.4957 24.7998 46.5523C24.818 46.5707 24.9971 46.5276 25.1978 46.4566C26.5933 45.9629 28.1464 45.7073 30.506 45.5837C31.4425 45.5348 32.5076 45.4566 32.8731 45.4103C34.9752 45.1435 36.4323 44.5001 37.5654 43.3383C38.1957 42.6917 38.5716 42.0894 38.8745 41.2402C39.0665 40.7014 39.0925 40.5013 39.0939 39.5468C39.0956 38.5742 39.0723 38.3962 38.8642 37.7979C38.5918 37.0136 38.2704 36.4251 37.8634 35.9648L37.5694 35.6325L37.7276 36.1077ZM40.8709 42.5178C40.0465 40.7327 39.8575 39.0094 40.3088 37.4023C40.3573 37.2304 40.4348 37.0898 40.4818 37.0898C40.5285 37.0898 40.7228 37.1959 40.9139 37.3253C41.2935 37.5829 42.0553 38.0167 44.0845 39.1313C46.617 40.5223 48.0608 41.5992 49.0426 42.83C49.9024 43.9076 50.4345 45.1349 50.6904 46.6316C50.8357 47.4795 50.7507 49.5196 50.5348 50.3732C49.854 53.065 48.2715 55.1793 46.0146 56.4133C45.684 56.5938 45.3871 56.7422 45.3548 56.743C45.3228 56.7436 45.4433 56.4351 45.6226 56.057C46.3818 54.458 46.4683 52.9026 45.8944 51.1716C45.5427 50.1115 44.8262 48.8181 43.3792 46.6319C41.697 44.0904 41.2845 43.4139 40.8709 42.5178ZM25.3463 48.3725C22.7374 48.7994 19.8732 50.1903 17.5713 52.1485L16.8859 52.7315L17.4882 52.8264C20.6312 53.3206 21.4775 53.7591 23.6577 56.0217C24.9123 57.3235 25.336 57.6133 26.3766 57.8809C27.905 58.274 29.4116 57.5518 29.9284 56.1781C30.1593 55.5643 30.1284 54.548 29.8636 54.0376C29.2335 52.8224 27.3977 52.4297 26.51 53.3198C25.7706 54.0612 25.9861 55.1782 26.9057 55.3702C27.1162 55.4145 27.1102 55.405 26.852 55.2874C26.4496 55.104 26.2747 54.8498 26.2725 54.4453C26.2674 53.4969 27.3447 52.9644 28.3469 53.4198C29.0807 53.7536 29.3721 54.1894 29.3721 54.9536C29.3721 56.1304 28.378 57.017 27.2212 56.8721C26.6028 56.7945 25.8466 56.396 25.441 55.9343C24.4207 54.7719 24.8182 52.9377 26.2428 52.2339C27.3273 51.6983 28.769 51.8302 29.8869 52.5677C31.1713 53.4152 31.7175 54.1897 32.8238 56.7318C33.1841 57.5595 33.6476 58.4913 33.8537 58.8024C34.9017 60.3828 36.1573 61.1579 37.6697 61.1579C38.5039 61.1579 39.1314 61.0043 39.9209 60.6073C40.5074 60.312 41.339 59.7511 41.2791 59.691C41.2621 59.6741 41.0188 59.7503 40.7383 59.8604C39.087 60.5093 37.4083 60.4647 36.4334 59.7457C35.8195 59.2931 35.3243 58.3915 35.0698 57.264C35.0257 57.0688 34.8804 56.2068 34.7466 55.3484C34.4077 53.1726 34.0822 52.1945 33.3233 51.0721C32.5468 49.9238 31.054 48.9601 29.3851 48.5297C28.3438 48.2612 26.4707 48.1882 25.3463 48.3725ZM21.6924 31.55C21.9177 30.7116 22.6455 29.9121 23.3943 29.6804C23.8704 29.5332 24.8545 29.6272 25.3173 29.8641C26.214 30.3235 26.8651 31.3697 26.7238 32.125C26.5515 33.0458 25.0691 33.7827 23.364 33.7948C22.493 33.8008 22.1714 33.6829 21.8388 33.2356C21.6329 32.9584 21.5549 32.0614 21.6924 31.55ZM25.0883 30.1924C25.5355 30.4675 25.6506 30.8743 25.3876 31.2507C25.2065 31.51 24.6457 31.7564 24.236 31.7564C23.6204 31.7564 22.9488 31.3159 22.9488 30.9126C22.9488 30.1021 24.2366 29.6683 25.0883 30.1924ZM158.746 32.5131C157.355 27.898 159.649 24.0699 164.544 22.8398C165.947 22.4868 172.304 22.6461 173.393 23.0616C173.793 23.2139 173.967 23.7984 173.971 24.9996C173.974 25.9456 174.077 27.0946 174.2 27.5528C174.388 28.2473 174.278 28.384 173.544 28.3728C172.879 28.3625 172.477 27.974 171.916 26.7987C171.02 24.9215 169.934 24.3244 167.406 24.3174C164.177 24.3081 161.815 26.4761 162.2 29.0956C162.45 30.8002 164.158 32.4774 167.99 34.7832C171.636 36.9765 173.764 38.7803 174.611 40.3963C176.879 44.7169 174.943 49.3405 169.891 51.6701C167.298 52.8658 162.952 52.9894 159.897 51.9544L157.94 51.2914V48.1732C157.94 45.3491 158.008 45.0544 158.653 45.0544C159.193 45.0544 159.426 45.4103 159.616 46.5253C160.087 49.2976 162.2 50.9807 165.208 50.9807C168.155 50.9807 170.215 49.3747 171.004 46.4626C171.34 45.222 171.282 44.7646 170.616 43.3961C169.817 41.7554 168.441 40.6666 163.768 37.9779C161.175 36.4858 159.342 34.4908 158.746 32.5131ZM67.1484 24.6822C66.5108 24.6822 66.2621 24.4744 66.2621 23.9414C66.2621 23.2358 66.5109 23.2006 71.5069 23.2006C76.1442 23.2006 76.7377 23.2702 76.6313 23.801C76.5647 24.1314 75.924 24.5896 75.2065 24.8196L73.9019 25.2378L73.7907 34.6831C73.716 40.9857 73.8209 44.6214 74.1054 45.6099C74.9514 48.5496 77.532 50.2401 81.1731 50.2401C83.7079 50.2401 85.1886 49.649 87.0489 47.8935C89.0499 46.0063 89.369 44.2132 89.3626 34.8936C89.3566 25.7009 89.196 24.9422 87.2167 24.7514C86.3159 24.6644 86.0141 24.4551 86.0141 23.918C86.0141 23.2483 86.3113 23.2006 90.4862 23.2006C94.7098 23.2006 94.9583 23.2417 94.9583 23.9414C94.9583 24.3977 94.7078 24.6844 94.306 24.6877C92.58 24.7029 92.5483 24.8667 92.316 34.9468C92.075 45.4147 91.8499 46.6541 89.7229 49.2183C89.1096 49.958 87.6467 51.0321 86.4724 51.6054C84.5588 52.5395 83.95 52.6467 80.6102 52.6407C77.5315 52.6344 76.5595 52.486 75.02 51.7871C72.7729 50.7668 71.3115 49.4463 70.2341 47.4619C69.482 46.0768 69.4178 45.3273 69.2437 35.9424C69.0442 25.2 68.9476 24.6822 67.1484 24.6822ZM102.022 24.6822C101.17 24.6822 100.921 24.5148 100.921 23.9414C100.921 23.2469 101.159 23.2024 104.741 23.231L108.561 23.2613L110.389 25.3608C111.393 26.5153 114.669 30.1271 117.667 33.3865C120.665 36.6462 124.107 40.438 125.316 41.8131C126.525 43.1885 127.662 44.3135 127.844 44.3135C128.031 44.3135 128.124 40.4288 128.058 35.3913L127.94 26.469L126.894 25.5756C126.319 25.0841 125.439 24.6822 124.938 24.6822C124.271 24.6822 124.027 24.4807 124.027 23.931C124.027 23.2076 124.217 23.1835 129.151 23.2828C133.347 23.3672 134.276 23.4839 134.276 23.9262C134.276 24.2414 133.757 24.5722 133.03 24.72C132.345 24.8593 131.59 25.1659 131.353 25.4015C131.047 25.7056 130.891 29.6375 130.815 38.9609L130.708 52.0918H129.628C128.698 52.0918 127.591 51.0482 121.674 44.5913C117.893 40.4656 113.479 35.5626 111.867 33.6956C110.253 31.8283 108.808 30.2864 108.654 30.2694C108.221 30.2211 108.326 46.9036 108.768 48.4872C109.114 49.7211 109.351 49.9336 110.816 50.3234C111.997 50.6371 112.474 50.9554 112.474 51.428C112.474 52.0349 112.024 52.0918 107.257 52.0918C102.404 52.0918 102.039 52.0435 102.039 51.3975C102.039 50.9246 102.39 50.6334 103.14 50.4841C105.416 50.0319 105.567 49.314 105.695 38.3401C105.766 32.194 105.661 27.8936 105.417 26.9932C104.988 25.4097 103.919 24.6822 102.022 24.6822ZM141.099 24.6822C140.301 24.6822 140.052 24.5062 140.052 23.9414C140.052 23.2335 140.301 23.2006 145.642 23.2006C150.984 23.2006 151.232 23.2335 151.232 23.9414C151.232 24.4848 150.984 24.6822 150.301 24.6822C149.788 24.6822 149.027 25.0223 148.609 25.4378C147.87 26.1716 147.851 26.5365 147.957 37.8767C148.059 48.9469 148.103 49.5874 148.788 50.0851C149.186 50.374 149.898 50.6104 150.372 50.6104C150.984 50.6104 151.232 50.824 151.232 51.3512C151.232 52.0591 150.984 52.0918 145.642 52.0918C140.428 52.0918 140.052 52.0453 140.052 51.3987C140.052 50.8772 140.418 50.6469 141.529 50.4703C143.734 50.1199 143.847 49.4023 143.709 36.5973C143.599 26.3427 143.552 25.7034 142.869 25.2074C142.471 24.9185 141.675 24.6822 141.099 24.6822ZM180.093 24.6822C179.583 24.6822 179.196 24.4003 179.075 23.9414C178.887 23.225 179.064 23.2006 184.436 23.2006C189.742 23.2006 189.991 23.2335 189.991 23.9414C189.991 24.5107 189.742 24.6822 188.918 24.6822C186.572 24.6822 186.625 25.1059 190.176 34.7927C191.983 39.7236 193.738 44.4075 194.075 45.2013L194.688 46.6449L197.534 39.0897C200.885 30.1964 201.32 28.5518 200.752 26.9298C200.355 25.7993 198.813 24.6822 197.649 24.6822C197.32 24.6822 197.072 24.3636 197.072 23.9414C197.072 23.2324 197.32 23.2006 202.848 23.2006C208.376 23.2006 208.625 23.2324 208.625 23.9414C208.625 24.4685 208.376 24.6822 207.764 24.6822C206.197 24.6822 205.506 25.5126 205.731 27.1261C205.963 28.787 212.373 46.6377 212.642 46.3706C213.079 45.9362 220.178 26.7198 220.178 25.9708C220.178 25.0733 219.546 24.6822 218.097 24.6822C217.445 24.6822 217.196 24.4781 217.196 23.9414C217.196 23.2417 217.445 23.2006 221.668 23.2006C225.462 23.2006 226.14 23.288 226.14 23.7754C226.14 24.0918 225.676 24.5114 225.108 24.7081C223.83 25.1507 223.509 25.656 221.907 29.7485C221.203 31.5457 219.001 37.1703 217.012 42.247C215.024 47.3242 213.311 51.6997 213.207 51.9702C213.102 52.2411 212.486 52.4624 211.837 52.4624H210.658L207.981 45.5173C206.508 41.6979 204.768 37.1726 204.115 35.4614C202.995 32.5292 202.901 32.4018 202.48 33.2387C202.234 33.7278 200.465 38.2611 198.549 43.313L195.065 52.4987L192.465 52.2773L187.505 39.3421C184.735 32.1152 182.187 26.026 181.732 25.5445C181.283 25.07 180.546 24.6822 180.093 24.6822ZM254.611 24.8393C254.548 24.6986 254.549 24.1929 254.549 24.1929C254.549 24.1929 254.534 24.0105 254.611 23.9132C254.688 23.8162 254.715 23.8137 254.989 23.7877L254.991 23.7874C255.998 23.692 258.016 23.5313 259.701 23.458C259.855 23.4513 260.027 23.4435 260.213 23.4351L260.217 23.4349L260.219 23.4348L260.221 23.4347C262.075 23.3508 265.393 23.2386 267.674 23.3523C272.049 23.5703 275.161 25.6799 276.222 29.166C277.283 32.652 276.722 35.9243 275.276 38.0072C273.83 40.0902 271.399 41.8836 267.359 41.7669C264.023 41.6705 263.131 41.0475 262.418 40.5499C262.267 40.4446 262.124 40.3449 261.968 40.2572V44.7028C262.003 47.7348 262.029 49.191 262.264 49.73C262.581 50.4557 263.298 50.9027 264.695 51.2454C264.695 51.2454 265.327 51.3932 265.49 51.5508C265.653 51.7083 265.653 52.0582 265.653 52.0582C265.653 52.0582 265.686 52.3854 265.555 52.5521C265.424 52.7189 265.171 52.6855 265.171 52.6855L258.986 52.6358L255.256 52.626C255.256 52.626 254.865 52.7008 254.718 52.5438C254.571 52.3865 254.585 52.0591 254.585 52.0591C254.585 52.0591 254.617 51.7063 254.788 51.5485C254.96 51.3903 255.596 51.2138 255.596 51.2138C257.035 50.811 257.658 50.385 257.984 49.5823C258.247 48.9351 258.249 47.7351 258.246 37.942C258.244 28.6548 258.23 26.9224 258.016 26.4242C257.701 25.6867 256.909 25.4912 255.783 25.213C255.56 25.1579 255.323 25.0993 255.074 25.0328C255.074 25.0328 254.673 24.98 254.611 24.8393ZM272.622 32.4174C272.622 33.9402 272.595 36.3245 270.969 37.8485C269.344 39.3726 266.144 39.7897 263.971 39.3654C263.286 39.2317 262.895 39.0255 262.593 38.8666L262.563 38.8507L262.007 38.5586L261.975 33.208C261.954 29.8554 261.99 27.6712 262.069 27.3589C262.141 25.5912 264.755 25.3713 266.033 25.4367C271.497 25.4367 272.462 30.0294 272.622 32.4174ZM237.45 23.408C237.45 23.408 237.183 23.5102 236.779 23.6632L235.319 24.4149L234.269 27.0314C233.691 28.4704 232.634 31.1121 231.92 32.9018C230.619 36.1615 229.76 38.3031 228.856 40.5384C228.59 41.1959 227.788 43.198 227.072 44.9877C226.357 46.7771 225.642 48.4803 225.484 48.7724C225.457 48.821 225.429 48.8733 225.4 48.9285C225 49.6783 224.305 50.9807 223.078 51.1776C223.078 51.1776 222.404 51.2437 222.154 51.4898C221.904 51.7362 221.928 51.9375 221.928 51.9375V52.2477C221.928 52.2477 221.951 52.398 222.092 52.4728C222.234 52.5478 222.426 52.5521 222.426 52.5521L226.914 52.5012H231.553C231.553 52.5012 231.881 52.5395 232.007 52.4348C232.134 52.3302 232.169 52.1749 232.169 52.1749V51.8483C232.169 51.8483 232.104 51.4941 231.921 51.3558C231.737 51.2178 231.048 51.1233 231.048 51.1233C229.191 50.8797 228.871 49.4788 229.101 48.2189C229.213 47.5999 229.96 45.3103 230.8 43.0051L231.091 42.2085L235.952 42.1714C238.625 42.151 240.933 42.1648 241.081 42.2021C241.292 42.2553 241.587 42.8536 242.455 44.9846C243.769 48.2132 243.874 48.6065 243.583 49.2105C243.565 49.2473 243.546 49.2879 243.526 49.3316C243.253 49.9158 242.723 51.0508 241.387 51.1664C241.387 51.1664 240.678 51.1908 240.502 51.4021C240.326 51.6137 240.364 51.857 240.364 51.857V52.1801C240.364 52.1801 240.411 52.3696 240.502 52.4446C240.593 52.5196 240.747 52.5007 240.747 52.5007L245.159 52.469L251.361 52.4688C251.361 52.4688 251.604 52.4946 251.671 52.4015C251.737 52.308 251.751 52.1982 251.751 52.1982V51.769C251.751 51.769 251.724 51.5407 251.604 51.4148C251.485 51.2891 250.681 51.1563 250.681 51.1563C249.653 50.991 249.142 50.1452 248.761 49.5153C248.664 49.3546 248.575 49.2079 248.488 49.0903C248.312 48.8503 247.681 47.5347 247.187 46.2694C246.693 45.0041 245.579 42.1458 244.711 39.9179C243.843 37.6901 242.631 34.5822 242.019 33.0119C241.406 31.4413 240.242 28.453 239.432 26.3712C239.299 26.0295 239.18 25.7226 239.073 25.4479L239.073 25.4466C238.53 24.0485 238.311 23.4844 238.25 23.408C238.055 23.1601 237.45 23.408 237.45 23.408ZM237.161 31.9154C236.966 31.4407 236.621 30.5891 236.396 30.0231C235.986 28.9941 235.831 28.7571 235.704 28.9697C235.667 29.0318 235.41 29.735 235.132 30.5325C233.333 35.696 232.519 38.021 232.355 38.4592C232.253 38.7346 232.169 39.0184 232.169 39.0899C232.169 39.1722 233.632 39.2202 236.138 39.2202C238.321 39.2202 240.108 39.1932 240.108 39.1601C240.108 39.127 239.913 38.6343 239.675 38.0644C239.437 37.4946 238.854 36.0723 238.38 34.9037C237.906 33.735 237.357 32.3903 237.161 31.9154Z" fill="white"/>
</svg>
