<svg width="291" height="50" viewBox="0 0 291 50" fill="none" xmlns="http://www.w3.org/2000/svg">
<path fill-rule="evenodd" clip-rule="evenodd" d="M42.7063 29.9957C41.8424 30.5132 40.8057 30.6857 40.1146 30.1682C39.0779 29.6507 38.5596 28.2707 38.5596 26.5457V21.0257C38.5596 18.4382 37.5229 16.5407 35.7952 16.0232C32.8579 15.1607 30.6118 18.7832 29.7479 20.1632L24.5646 28.6157V18.2657C24.5646 15.8507 23.7007 14.4707 22.3185 14.1257C21.2818 13.7807 19.8996 13.9532 18.5174 16.0232L6.94126 34.6532C5.38626 31.7207 4.52237 28.4432 4.52237 24.9932C4.52237 13.7807 13.5068 4.63818 24.5646 4.63818C35.6224 4.63818 44.6068 13.9532 44.6068 25.1657C44.7796 27.4082 44.0885 29.1332 42.7063 29.9957ZM49.099 25.1657C49.099 11.3657 38.0413 0.325684 24.5646 0.325684C11.0879 0.325684 0.0301514 11.5382 0.0301514 25.1657C0.0301514 38.7932 11.0879 50.0057 24.5646 50.0057C30.7846 50.0057 36.659 47.5907 41.324 43.2782C42.1879 42.4157 42.3607 41.0357 41.4968 40.0007C40.6329 39.1382 39.2507 38.9657 38.3868 39.8282C34.7585 43.2782 29.7479 45.3482 24.7374 45.3482C18.8629 45.3482 13.5068 42.7607 9.70571 38.6207L20.2451 21.7157V29.4782C20.2451 33.2732 21.6274 34.4807 22.8368 34.8257C24.0463 35.1707 25.9468 34.9982 27.8474 31.7207L33.549 22.4057C33.7218 22.0607 33.8946 21.8882 34.0674 21.5432V26.2007C34.0674 29.6507 35.4496 32.4107 37.8685 33.7907C40.1146 34.9982 42.879 34.9982 45.1251 33.4457C47.8896 32.2382 49.2718 28.9607 49.099 25.1657ZM83.309 16.7132C83.8274 17.0582 84.3457 17.9207 84.3457 18.6107C84.3457 19.8182 83.309 20.6807 82.2724 20.6807C81.9268 20.6807 81.754 20.6807 81.4085 20.5082C80.0263 19.4732 78.4713 18.9557 76.7435 18.9557C72.5968 18.9557 69.8324 22.2332 69.8324 26.3732C69.8324 30.5132 72.5968 33.7907 76.7435 33.7907C78.8168 33.7907 80.5446 32.9282 81.9268 31.7207C82.2724 31.5482 82.7907 31.3757 83.1363 31.3757C84.1729 31.3757 85.0368 32.2382 85.0368 33.4457C85.0368 34.1357 84.5185 34.8257 84.0002 35.1707C82.0996 36.8957 79.3351 37.9307 76.5707 37.9307C70.3507 37.9307 65.1674 32.7557 65.1674 26.3732C65.1674 19.9907 70.3507 14.8157 76.5707 14.8157C79.3351 14.6432 81.5813 15.3332 83.309 16.7132ZM94.8851 21.5432C99.2046 21.5432 102.833 25.1657 102.833 29.6507C102.833 34.1357 99.2046 37.9307 94.8851 37.9307C90.3929 37.9307 86.5918 34.1357 86.5918 29.6507C86.5918 25.1657 90.3929 21.5432 94.8851 21.5432ZM94.8851 33.7907C96.7857 33.7907 98.3407 32.0657 98.3407 29.6507C98.3407 27.2357 96.7857 25.6832 94.8851 25.6832C92.8118 25.6832 91.084 27.2357 91.084 29.6507C91.084 32.0657 92.8118 33.7907 94.8851 33.7907ZM105.425 35.3432V23.9582C105.425 22.7507 106.461 21.7157 107.671 21.7157C108.88 21.7157 109.917 22.7507 109.917 23.9582V35.3432C109.917 36.5507 108.88 37.5857 107.671 37.5857C106.461 37.5857 105.425 36.5507 105.425 35.3432ZM105.079 17.4032C105.079 15.8507 106.288 14.8157 107.671 14.8157C109.053 14.8157 110.262 16.0232 110.262 17.4032C110.262 18.7832 109.053 19.9907 107.671 19.9907C106.288 19.9907 105.079 18.7832 105.079 17.4032ZM118.383 29.1332V35.3432C118.383 36.5507 117.346 37.5857 116.137 37.5857C114.927 37.5857 113.891 36.5507 113.891 35.3432V23.4407C113.891 22.4057 114.755 21.7157 115.618 21.7157C116.482 21.7157 117.346 22.5782 117.346 23.4407C119.074 21.7157 120.802 21.5432 122.184 21.5432C126.676 21.5432 128.577 24.8207 128.577 28.6157V35.3432C128.577 36.5507 127.54 37.5857 126.331 37.5857C125.121 37.5857 124.085 36.5507 124.085 35.3432V29.1332C124.085 27.2357 123.912 25.5107 120.975 25.5107C119.247 25.5107 118.383 27.2357 118.383 29.1332ZM143.263 31.5482C142.745 31.5482 142.399 31.3757 142.053 31.0307L136.87 25.3382V35.3432C136.87 36.5507 135.833 37.5857 134.624 37.5857C133.415 37.5857 132.378 36.5507 132.378 35.3432V15.5057C132.551 15.1607 132.896 14.9882 133.242 14.9882C133.587 14.9882 133.933 15.3332 134.106 15.5057L142.399 24.8207C142.572 25.1657 142.917 25.3382 143.09 25.3382C143.263 25.3382 143.608 25.1657 143.781 24.8207L152.075 15.5057C152.247 15.3332 152.593 14.9882 152.938 14.9882C153.284 14.9882 153.63 15.1607 153.802 15.5057V35.3432C153.802 36.5507 152.766 37.5857 151.556 37.5857C150.347 37.5857 149.31 36.5507 149.31 35.3432V25.3382L144.127 31.0307C143.954 31.2032 143.608 31.5482 143.263 31.5482ZM164.515 33.7907C166.588 33.7907 168.143 32.0657 168.143 29.6507C168.143 27.2357 166.415 25.6832 164.515 25.6832C162.614 25.6832 161.059 27.2357 161.059 29.6507C161.059 31.8932 162.614 33.7907 164.515 33.7907ZM169.352 35.8607V35.3432C168.488 37.0682 165.724 37.7582 163.996 37.7582C159.85 37.7582 156.74 33.9632 156.74 29.4782C156.74 24.9932 159.85 21.3707 164.169 21.3707C164.86 21.3707 167.452 21.5432 169.352 23.7857V23.2682C169.352 22.2332 170.043 21.5432 171.08 21.5432C171.944 21.5432 172.808 22.4057 172.808 23.2682V35.6882C172.808 36.7232 171.944 37.4132 171.08 37.4132C170.043 37.5857 169.352 36.8957 169.352 35.8607ZM185.075 25.5107H184.557C181.792 25.6832 181.274 27.2357 181.274 29.1332V35.3432C181.274 36.5507 180.237 37.5857 179.028 37.5857C177.818 37.5857 176.782 36.5507 176.782 35.3432V23.4407C176.782 22.4057 177.646 21.7157 178.51 21.7157C179.373 21.7157 180.237 22.5782 180.237 23.4407C181.965 21.8882 183.175 21.5432 184.557 21.5432H185.075C186.112 21.5432 187.148 22.4057 187.148 23.6132C186.976 24.6482 186.112 25.5107 185.075 25.5107ZM202.18 34.3082C202.353 34.6532 202.526 34.9982 202.526 35.3432C202.526 36.5507 201.489 37.5857 200.28 37.5857C199.416 37.5857 198.897 37.0682 198.379 36.3782L193.196 30.5132V35.3432C193.196 36.5507 192.159 37.5857 190.95 37.5857C189.74 37.5857 188.703 36.5507 188.703 35.3432V17.2307C188.703 16.0232 189.74 14.9882 190.95 14.9882C192.159 14.9882 193.196 16.0232 193.196 17.2307V28.6157L198.379 22.9232C198.897 22.4057 199.588 21.7157 200.28 21.7157C201.316 21.7157 202.353 22.7507 202.353 23.9582C202.353 24.3032 202.353 24.6482 202.007 24.9932L198.033 29.4782L202.18 34.3082ZM210.819 25.6832C209.61 25.6832 207.709 26.3732 207.709 28.2707H214.102C214.102 26.2007 212.028 25.6832 210.819 25.6832ZM216.693 31.0307H207.709C207.709 33.6182 210.301 34.1357 211.337 34.1357C212.201 34.1357 213.411 33.9632 214.275 33.6182C214.62 33.4457 214.966 33.2732 215.484 33.2732C216.521 33.2732 217.212 34.1357 217.212 35.1707C217.212 35.8607 216.693 36.3782 216.175 36.7232C214.793 37.7582 213.065 37.9307 211.337 37.9307C206.845 37.9307 203.044 35.5157 203.044 29.8232C203.044 25.3382 205.29 21.5432 210.646 21.5432C214.966 21.5432 218.248 24.3032 218.248 29.3057C218.421 30.1682 217.73 31.0307 216.693 31.0307ZM229.133 37.7582H227.924C224.468 37.7582 222.568 36.2057 222.568 31.0307V25.5107H221.358C220.322 25.5107 219.285 24.4757 219.285 23.4407C219.285 22.2332 220.149 21.3707 221.358 21.3707H222.568V17.2307C222.568 16.0232 223.605 14.9882 224.814 14.9882C226.023 14.9882 227.06 16.0232 227.06 17.2307V21.3707H228.961C229.997 21.3707 231.034 22.2332 231.034 23.4407C231.034 24.4757 230.17 25.5107 228.961 25.5107H227.06V30.1682C227.06 33.2732 227.233 33.7907 228.615 33.7907H229.306C230.343 33.7907 231.207 34.6532 231.207 35.8607C231.034 36.8957 230.17 37.7582 229.133 37.7582ZM250.558 16.7132C251.076 17.0582 251.595 17.9207 251.595 18.6107C251.595 19.8182 250.558 20.6807 249.521 20.6807C249.176 20.6807 249.003 20.6807 248.657 20.5082C247.275 19.4732 245.72 18.9557 243.992 18.9557C239.846 18.9557 237.081 22.2332 237.081 26.3732C237.081 30.5132 239.846 33.7907 243.992 33.7907C246.066 33.7907 247.793 32.9282 249.176 31.7207C249.521 31.5482 250.04 31.3757 250.385 31.3757C251.422 31.3757 252.286 32.2382 252.286 33.4457C252.286 34.1357 251.767 34.8257 251.249 35.1707C249.348 36.8957 246.584 37.9307 243.82 37.9307C237.6 37.9307 232.416 32.7557 232.416 26.3732C232.416 19.9907 237.6 14.8157 243.82 14.8157C246.584 14.6432 248.83 15.3332 250.558 16.7132ZM261.961 33.7907C264.035 33.7907 265.59 32.0657 265.59 29.6507C265.59 27.2357 263.862 25.6832 261.961 25.6832C260.061 25.6832 258.506 27.2357 258.506 29.6507C258.333 31.8932 259.888 33.7907 261.961 33.7907ZM266.626 35.8607V35.3432C265.762 37.0682 262.998 37.7582 261.27 37.7582C257.123 37.7582 254.013 33.9632 254.013 29.4782C254.013 24.9932 257.123 21.3707 261.443 21.3707C262.134 21.3707 264.726 21.5432 266.626 23.7857V23.2682C266.626 22.2332 267.317 21.5432 268.354 21.5432C269.218 21.5432 270.082 22.4057 270.082 23.2682V35.6882C270.082 36.7232 269.218 37.4132 268.354 37.4132C267.317 37.5857 266.626 36.8957 266.626 35.8607ZM282.349 33.7907C284.25 33.7907 285.805 31.8932 285.805 29.6507C285.805 27.2357 284.25 25.6832 282.349 25.6832C280.448 25.6832 278.721 27.2357 278.721 29.6507C278.548 32.0657 280.276 33.7907 282.349 33.7907ZM278.548 36.5507V42.2432C278.548 43.4507 277.511 44.4857 276.302 44.4857C275.092 44.4857 274.056 43.4507 274.056 42.2432V23.4407C274.056 22.4057 274.92 21.7157 275.783 21.7157C276.647 21.7157 277.511 22.5782 277.511 23.6132C279.239 21.8882 281.14 21.5432 282.695 21.5432C287.014 21.5432 290.124 25.1657 290.124 29.6507C290.124 34.1357 287.014 37.9307 282.867 37.9307C281.658 37.7582 279.757 37.4132 278.548 36.5507Z" fill="white"/>
</svg>
